<svg width="24" height="25" viewBox="0 0 24 25" fill="none" xmlns="http://www.w3.org/2000/svg">
<path fill-rule="evenodd" clip-rule="evenodd" d="M9 4.47723C9 3.37266 9.89543 2.47723 11 2.47723H13C14.1046 2.47723 15 3.37266 15 4.47723V5.97723H19.5C20.0523 5.97723 20.5 6.42495 20.5 6.97723C20.5 7.52952 20.0523 7.97723 19.5 7.97723H19V17.9772C19 19.6341 17.6569 20.9772 16 20.9772H8C6.34315 20.9772 5 19.6341 5 17.9772V7.97723H4.5C3.94772 7.97723 3.5 7.52952 3.5 6.97723C3.5 6.42495 3.94772 5.97723 4.5 5.97723H9V4.47723ZM11 5.97723H13V4.47723H11V5.97723ZM7 7.97723V17.9772C7 18.5295 7.44772 18.9772 8 18.9772H16C16.5523 18.9772 17 18.5295 17 17.9772V7.97723H7ZM10 9.97723C10.5523 9.97723 11 10.4249 11 10.9772V15.9772C11 16.5295 10.5523 16.9772 10 16.9772C9.44772 16.9772 9 16.5295 9 15.9772V10.9772C9 10.4249 9.44772 9.97723 10 9.97723ZM14 9.97723C14.5523 9.97723 15 10.4249 15 10.9772V15.9772C15 16.5295 14.5523 16.9772 14 16.9772C13.4477 16.9772 13 16.5295 13 15.9772V10.9772C13 10.4249 13.4477 9.97723 14 9.97723Z" fill="black" fill-opacity="0.6"/>
</svg>
